<svg id="svg" version="1.1" width="400" height="400" xmlns="http://www.w3.org/2000/svg" xmlns:xlink="http://www.w3.org/1999/xlink" style="display: block;"><g id="svgg"><path id="path0" d="M277.148 89.897 C 275.215 90.300,273.079 90.892,272.402 91.213 C 271.725 91.534,270.932 91.797,270.641 91.797 C 269.626 91.797,263.068 95.387,260.337 97.439 C 228.480 121.362,242.229 171.586,281.695 175.458 C 310.347 178.269,333.606 153.350,328.738 125.058 C 324.582 100.911,301.096 84.904,277.148 89.897 M290.314 106.656 C 293.174 107.451,293.359 108.071,293.359 116.850 L 293.359 124.609 300.625 124.609 C 311.021 124.609,311.719 125.088,311.719 132.227 C 311.719 139.398,311.068 139.844,300.598 139.844 L 293.359 139.844 293.359 147.650 L 293.359 155.456 292.220 156.732 C 291.093 157.994,291.037 158.009,287.066 158.144 C 278.862 158.424,278.516 157.997,278.516 147.604 L 278.516 139.844 271.277 139.844 C 260.549 139.844,259.940 139.392,260.229 131.654 C 260.484 124.828,260.962 124.527,271.286 124.690 L 278.517 124.805 278.518 117.188 C 278.519 106.801,278.811 106.361,285.742 106.287 C 287.461 106.269,289.518 106.435,290.314 106.656 M107.813 156.674 C 92.200 158.165,78.330 169.405,72.853 185.005 C 69.250 195.265,69.201 230.266,72.774 241.054 C 75.273 248.600,84.761 261.719,87.720 261.719 C 87.993 261.719,88.275 261.865,88.346 262.044 C 88.681 262.881,94.000 265.782,98.047 267.335 C 104.168 269.684,104.081 269.678,133.398 269.907 L 160.352 270.117 160.638 272.711 C 160.960 275.629,162.286 281.621,163.003 283.398 C 168.747 297.649,179.116 306.584,194.141 310.232 L 197.852 311.133 245.117 311.133 L 292.383 311.133 296.094 310.199 C 313.733 305.760,325.319 293.794,328.765 276.455 C 329.760 271.446,329.996 241.573,329.094 234.791 C 327.224 220.731,320.119 209.888,308.250 202.978 C 304.347 200.706,301.369 199.597,294.727 197.941 C 293.816 197.714,282.004 197.451,266.408 197.311 L 239.652 197.070 239.206 193.555 C 238.701 189.574,237.756 185.523,236.929 183.789 C 236.621 183.145,235.895 181.563,235.315 180.273 C 230.931 170.526,219.776 160.812,210.174 158.380 C 208.768 158.024,207.266 157.577,206.836 157.386 C 204.405 156.305,118.164 155.685,107.813 156.674 M202.252 178.528 C 210.068 180.332,217.522 188.738,217.569 195.801 L 217.578 197.266 209.863 197.276 C 193.160 197.298,186.128 199.194,177.045 206.129 C 170.529 211.102,166.902 216.076,162.856 225.586 C 161.499 228.777,160.812 233.328,160.587 240.625 L 160.352 248.242 135.547 248.343 C 112.278 248.437,110.560 248.398,107.808 247.702 C 100.984 245.976,95.324 240.690,93.121 233.984 C 92.093 230.857,91.799 197.833,92.765 194.040 C 94.620 186.756,99.327 181.480,106.107 179.088 L 108.789 178.141 154.688 178.143 C 183.395 178.144,201.210 178.288,202.252 178.528 M217.887 225.293 C 217.611 235.665,214.755 241.408,207.866 245.445 C 203.527 247.989,202.052 248.242,191.602 248.242 L 182.227 248.242 182.257 241.722 C 182.276 237.777,182.451 235.000,182.701 234.691 C 182.927 234.410,183.245 233.564,183.406 232.813 C 184.466 227.857,190.287 222.095,196.207 220.140 C 198.921 219.244,199.072 219.233,208.732 219.186 L 218.051 219.141 217.887 225.293 M293.591 220.117 C 300.163 222.323,304.469 226.695,306.872 233.602 C 308.012 236.878,308.013 271.213,306.873 274.805 C 304.766 281.448,300.027 286.259,293.359 288.527 C 290.011 289.666,200.314 289.662,196.680 288.523 C 189.162 286.167,181.808 277.220,182.487 271.258 L 182.617 270.117 193.164 269.913 C 203.565 269.713,208.699 269.078,211.632 267.630 C 212.002 267.447,213.711 266.639,215.430 265.835 C 224.240 261.711,231.435 254.500,235.390 245.829 C 236.156 244.148,236.924 242.501,237.096 242.168 C 237.268 241.835,237.634 240.517,237.910 239.238 C 238.185 237.960,238.579 236.693,238.786 236.423 C 238.993 236.154,239.235 232.726,239.325 228.806 C 239.415 224.887,239.576 221.108,239.684 220.410 L 239.879 219.141 265.281 219.141 L 290.683 219.141 293.591 220.117 " stroke="none" fill="#ffffff" fill-rule="evenodd"></path><path id="path1" d="M0.000 200.000 L 0.000 400.000 200.000 400.000 L 400.000 400.000 400.000 200.000 L 400.000 0.000 200.000 0.000 L 0.000 0.000 0.000 200.000 M290.039 88.865 C 320.518 91.351,338.997 124.715,325.088 152.148 C 308.914 184.053,263.665 184.166,246.990 152.344 C 232.893 125.439,250.742 92.377,281.245 88.894 C 283.718 88.611,286.006 88.432,286.328 88.495 C 286.650 88.558,288.320 88.725,290.039 88.865 M207.031 156.968 C 208.857 157.444,210.905 158.093,211.582 158.409 C 212.259 158.726,212.928 158.984,213.069 158.984 C 214.513 158.984,220.976 162.839,224.715 165.930 C 233.060 172.830,239.844 186.029,239.844 195.366 L 239.844 196.823 266.895 196.990 C 284.177 197.097,294.510 197.308,295.508 197.572 C 300.160 198.806,301.794 199.317,302.129 199.641 C 302.333 199.838,302.752 200.000,303.060 200.000 C 303.368 200.000,304.871 200.635,306.400 201.410 C 318.446 207.522,327.549 219.904,329.267 232.514 C 329.699 235.686,329.860 271.740,329.457 275.164 C 328.218 285.705,320.681 297.970,311.861 303.801 C 311.460 304.066,310.467 304.725,309.652 305.265 C 306.175 307.573,300.021 309.951,294.727 311.033 C 288.709 312.263,197.157 311.764,192.969 310.479 C 173.643 304.547,160.232 288.886,160.162 272.168 C 160.159 271.362,160.112 270.663,160.059 270.615 C 160.005 270.566,147.832 270.427,133.008 270.306 C 103.999 270.070,104.397 270.097,98.336 267.909 C 83.836 262.675,72.822 249.237,70.735 234.233 C 70.050 229.307,70.179 195.571,70.900 191.125 C 73.853 172.914,89.558 158.178,108.203 156.123 C 108.955 156.040,130.752 156.001,156.641 156.037 L 203.711 156.101 207.031 156.968 M110.742 178.404 C 102.452 179.551,96.182 184.706,93.504 192.578 C 92.386 195.865,92.387 230.309,93.505 233.594 C 95.813 240.373,99.702 244.363,106.710 247.137 C 108.230 247.739,110.978 247.820,134.277 247.947 L 160.156 248.088 160.156 241.420 C 160.156 221.571,169.503 207.371,187.695 199.582 C 188.470 199.250,191.722 198.337,194.727 197.607 C 195.586 197.399,200.991 197.125,206.738 197.000 L 217.188 196.772 217.188 195.464 C 217.188 188.698,209.673 180.669,201.689 178.904 C 198.457 178.189,115.589 177.734,110.742 178.404 M197.738 220.139 C 187.881 222.792,182.786 230.182,182.673 241.992 L 182.617 247.852 191.602 247.852 C 206.554 247.852,212.557 244.587,216.289 234.426 C 217.282 231.721,218.012 222.874,217.432 220.563 L 217.173 219.531 208.489 219.557 C 202.274 219.575,199.217 219.741,197.738 220.139 M240.095 220.392 C 239.963 220.885,239.852 223.850,239.849 226.981 C 239.830 247.662,225.376 266.204,206.836 269.333 C 205.977 269.478,204.746 269.747,204.102 269.931 C 203.457 270.115,198.447 270.357,192.969 270.470 C 187.490 270.582,182.964 270.680,182.910 270.688 C 182.546 270.743,182.943 273.205,183.605 275.000 C 185.255 279.475,187.111 282.201,190.039 284.446 C 191.113 285.270,192.168 286.082,192.383 286.250 C 193.284 286.955,197.237 288.319,199.414 288.675 C 202.602 289.196,287.222 289.189,290.625 288.667 C 295.266 287.956,304.297 281.967,304.297 279.601 C 304.297 279.360,304.531 278.886,304.818 278.546 C 305.105 278.207,305.764 276.787,306.283 275.391 L 307.227 272.852 307.227 254.492 C 307.227 237.571,307.169 235.949,306.488 233.789 C 304.589 227.767,300.487 223.363,294.336 220.743 L 291.992 219.745 266.164 219.620 L 240.335 219.495 240.095 220.392 " stroke="none" fill="#5e498f" fill-rule="evenodd"></path><path id="path2" d="M282.329 88.948 C 282.815 89.042,283.518 89.038,283.891 88.940 C 284.265 88.842,283.867 88.766,283.008 88.770 C 282.148 88.775,281.843 88.855,282.329 88.948 M288.188 88.948 C 288.674 89.042,289.377 89.038,289.751 88.940 C 290.124 88.842,289.727 88.766,288.867 88.770 C 288.008 88.775,287.702 88.855,288.188 88.948 M259.751 97.294 L 258.398 98.494 259.863 97.443 C 261.158 96.514,261.579 96.094,261.216 96.094 C 261.154 96.094,260.495 96.634,259.751 97.294 M313.281 98.169 C 313.281 98.236,313.853 98.808,314.551 99.439 L 315.820 100.586 314.673 99.316 C 313.604 98.133,313.281 97.867,313.281 98.169 M254.674 101.855 L 252.539 104.102 254.785 101.966 C 256.021 100.792,257.031 99.781,257.031 99.720 C 257.031 99.430,256.658 99.769,254.674 101.855 M324.490 111.909 C 324.848 112.658,325.209 113.202,325.294 113.117 C 325.473 112.939,324.287 110.547,324.020 110.547 C 323.921 110.547,324.133 111.160,324.490 111.909 M242.309 129.492 C 242.311 130.781,242.384 131.262,242.471 130.559 C 242.558 129.857,242.556 128.803,242.467 128.216 C 242.377 127.629,242.306 128.203,242.309 129.492 M329.388 128.516 C 329.388 129.268,329.468 129.575,329.566 129.199 C 329.664 128.823,329.664 128.208,329.566 127.832 C 329.468 127.456,329.388 127.764,329.388 128.516 M242.313 135.156 C 242.313 136.553,242.383 137.124,242.470 136.426 C 242.557 135.728,242.557 134.585,242.470 133.887 C 242.383 133.188,242.313 133.760,242.313 135.156 M329.388 136.328 C 329.388 137.080,329.468 137.388,329.566 137.012 C 329.664 136.636,329.664 136.021,329.566 135.645 C 329.468 135.269,329.388 135.576,329.388 136.328 M246.680 151.953 C 247.013 152.598,247.374 153.125,247.481 153.125 C 247.588 153.125,247.404 152.598,247.070 151.953 C 246.737 151.309,246.376 150.781,246.269 150.781 C 246.162 150.781,246.346 151.309,246.680 151.953 M110.063 156.136 C 110.549 156.229,111.252 156.226,111.626 156.128 C 111.999 156.030,111.602 155.954,110.742 155.958 C 109.883 155.962,109.577 156.042,110.063 156.136 M198.730 156.135 C 199.214 156.228,200.005 156.228,200.488 156.135 C 200.972 156.042,200.576 155.966,199.609 155.966 C 198.643 155.966,198.247 156.042,198.730 156.135 M318.921 161.035 L 317.773 162.305 319.043 161.157 C 319.741 160.526,320.313 159.955,320.313 159.888 C 320.313 159.586,319.990 159.852,318.921 161.035 M255.078 163.477 C 256.462 164.873,257.683 166.016,257.790 166.016 C 257.897 166.016,256.853 164.873,255.469 163.477 C 254.085 162.080,252.864 160.938,252.757 160.938 C 252.650 160.938,253.694 162.080,255.078 163.477 M220.703 162.999 C 220.703 163.073,221.274 163.553,221.973 164.064 C 222.758 164.639,223.031 164.733,222.688 164.311 C 222.168 163.671,220.703 162.702,220.703 162.999 M314.919 165.097 L 313.086 166.912 315.039 165.226 C 316.113 164.298,317.065 163.481,317.155 163.410 C 317.244 163.339,317.190 163.281,317.035 163.281 C 316.879 163.281,315.927 164.098,314.919 165.097 M227.327 168.457 C 228.285 169.478,229.120 170.313,229.183 170.313 C 229.476 170.313,229.166 169.962,227.441 168.343 L 225.586 166.602 227.327 168.457 M82.208 168.848 L 80.664 170.508 82.324 168.964 C 83.868 167.528,84.164 167.188,83.868 167.188 C 83.805 167.188,83.057 167.935,82.208 168.848 M305.566 171.322 C 304.868 171.627,304.297 171.955,304.297 172.051 C 304.297 172.339,306.625 171.435,306.860 171.055 C 307.120 170.634,307.157 170.626,305.566 171.322 M266.406 171.680 C 266.943 171.987,267.559 172.238,267.773 172.238 C 267.988 172.238,267.725 171.987,267.188 171.680 C 266.650 171.373,266.035 171.121,265.820 171.121 C 265.605 171.121,265.869 171.373,266.406 171.680 M301.367 173.256 C 300.390 173.726,300.358 173.781,301.172 173.582 C 302.279 173.311,303.523 172.677,302.930 172.686 C 302.715 172.689,302.012 172.945,301.367 173.256 M296.875 174.609 C 296.070 174.867,296.036 174.928,296.680 174.955 C 297.109 174.973,297.725 174.818,298.047 174.609 C 298.731 174.167,298.256 174.167,296.875 174.609 M281.738 176.051 C 282.114 176.149,282.729 176.149,283.105 176.051 C 283.481 175.952,283.174 175.872,282.422 175.872 C 281.670 175.872,281.362 175.952,281.738 176.051 M288.770 176.051 C 289.146 176.149,289.761 176.149,290.137 176.051 C 290.513 175.952,290.205 175.872,289.453 175.872 C 288.701 175.872,288.394 175.952,288.770 176.051 M109.863 178.394 C 110.239 178.493,110.854 178.493,111.230 178.394 C 111.606 178.296,111.299 178.216,110.547 178.216 C 109.795 178.216,109.487 178.296,109.863 178.394 M199.805 178.516 C 201.457 178.936,202.875 178.936,201.563 178.516 C 201.025 178.344,200.146 178.206,199.609 178.210 C 198.732 178.217,198.752 178.248,199.805 178.516 M71.338 188.330 C 71.012 189.958,71.328 190.274,71.680 188.672 C 71.828 187.997,71.868 187.363,71.768 187.263 C 71.669 187.164,71.475 187.644,71.338 188.330 M239.570 194.922 C 239.570 196.104,239.643 196.587,239.733 195.996 C 239.822 195.405,239.822 194.438,239.733 193.848 C 239.643 193.257,239.570 193.740,239.570 194.922 M203.982 197.166 C 206.280 197.235,210.147 197.235,212.576 197.167 C 215.005 197.098,213.125 197.042,208.398 197.041 C 203.672 197.041,201.685 197.097,203.982 197.166 M253.056 197.168 C 260.000 197.228,271.250 197.228,278.056 197.168 C 284.861 197.108,279.180 197.059,265.430 197.059 C 251.680 197.059,246.111 197.108,253.056 197.168 M196.191 197.535 C 196.567 197.633,197.183 197.633,197.559 197.535 C 197.935 197.437,197.627 197.356,196.875 197.356 C 196.123 197.356,195.815 197.437,196.191 197.535 M292.485 197.542 C 292.971 197.635,293.674 197.632,294.048 197.534 C 294.421 197.436,294.023 197.360,293.164 197.364 C 292.305 197.368,291.999 197.448,292.485 197.542 M294.954 197.795 C 295.044 197.872,295.732 198.048,296.484 198.186 C 297.446 198.362,297.678 198.323,297.266 198.052 C 296.736 197.705,294.567 197.464,294.954 197.795 M299.609 198.910 C 299.717 199.016,300.416 199.309,301.163 199.562 C 301.910 199.815,302.349 199.853,302.140 199.648 C 301.930 199.442,301.230 199.149,300.586 198.996 C 299.941 198.843,299.502 198.805,299.609 198.910 M175.561 206.738 L 174.414 208.008 175.684 206.861 C 176.867 205.791,177.133 205.469,176.831 205.469 C 176.764 205.469,176.192 206.040,175.561 206.738 M172.245 209.668 L 170.898 211.133 172.363 209.787 C 173.727 208.534,174.008 208.203,173.709 208.203 C 173.644 208.203,172.985 208.862,172.245 209.668 M317.969 210.352 C 319.136 211.533,320.178 212.500,320.286 212.500 C 320.393 212.500,319.526 211.533,318.359 210.352 C 317.192 209.170,316.150 208.203,316.042 208.203 C 315.935 208.203,316.802 209.170,317.969 210.352 M321.094 214.063 C 321.553 214.707,322.016 215.234,322.124 215.234 C 322.231 215.234,321.943 214.707,321.484 214.063 C 321.025 213.418,320.562 212.891,320.455 212.891 C 320.347 212.891,320.635 213.418,321.094 214.063 M325.081 220.495 C 325.767 221.885,326.392 222.957,326.470 222.879 C 326.645 222.704,324.283 217.969,324.021 217.969 C 323.919 217.969,324.396 219.106,325.081 220.495 M208.576 219.433 C 214.674 219.516,217.039 219.678,217.261 220.028 C 217.475 220.364,217.568 220.303,217.572 219.824 C 217.578 219.191,216.940 219.147,208.887 219.230 L 200.195 219.320 208.576 219.433 M239.979 219.743 C 239.851 220.075,239.857 220.456,239.991 220.590 C 240.125 220.724,240.234 220.542,240.234 220.185 C 240.234 219.589,242.228 219.529,264.941 219.434 L 289.648 219.330 264.929 219.235 C 242.953 219.151,240.184 219.208,239.979 219.743 M293.359 220.395 C 293.467 220.501,294.166 220.794,294.913 221.046 C 295.660 221.299,296.099 221.337,295.890 221.132 C 295.680 220.927,294.980 220.633,294.336 220.481 C 293.691 220.328,293.252 220.289,293.359 220.395 M217.717 224.805 C 217.716 226.738,217.782 227.579,217.864 226.672 C 217.945 225.765,217.946 224.183,217.866 223.156 C 217.785 222.129,217.718 222.871,217.717 224.805 M301.367 225.391 C 302.425 226.465,303.379 227.344,303.486 227.344 C 303.594 227.344,302.816 226.465,301.758 225.391 C 300.700 224.316,299.746 223.438,299.639 223.438 C 299.531 223.438,300.309 224.316,301.367 225.391 M188.061 225.488 L 186.914 226.758 188.184 225.611 C 189.367 224.541,189.633 224.219,189.331 224.219 C 189.264 224.219,188.692 224.790,188.061 225.488 M327.789 226.953 C 327.789 227.275,327.940 227.891,328.125 228.320 C 328.337 228.813,328.461 228.885,328.461 228.516 C 328.461 228.193,328.310 227.578,328.125 227.148 C 327.913 226.656,327.789 226.584,327.789 226.953 M186.240 227.637 C 185.911 228.013,185.354 228.936,185.002 229.688 C 184.651 230.439,184.586 230.725,184.858 230.323 C 187.095 227.006,187.524 226.173,186.240 227.637 M239.527 230.518 C 239.486 231.726,239.366 233.308,239.259 234.033 L 239.065 235.352 239.473 234.053 C 239.697 233.339,239.818 231.757,239.741 230.538 L 239.601 228.320 239.527 230.518 M183.426 233.036 C 183.283 233.608,183.240 234.152,183.333 234.244 C 183.425 234.336,183.617 233.943,183.761 233.371 C 183.905 232.798,183.947 232.254,183.855 232.162 C 183.763 232.070,183.570 232.463,183.426 233.036 M160.318 240.820 C 160.318 244.688,160.377 246.217,160.448 244.219 C 160.519 242.220,160.518 239.056,160.447 237.187 C 160.375 235.318,160.317 236.953,160.318 240.820 M307.122 237.109 C 307.122 237.861,307.202 238.169,307.301 237.793 C 307.399 237.417,307.399 236.802,307.301 236.426 C 307.202 236.050,307.122 236.357,307.122 237.109 M213.918 239.126 C 213.333 240.020,213.137 240.516,213.484 240.228 C 214.075 239.738,215.415 237.500,215.118 237.500 C 215.044 237.500,214.504 238.231,213.918 239.126 M237.930 239.688 C 237.705 240.501,237.591 241.237,237.677 241.323 C 237.763 241.409,238.018 240.814,238.242 240.000 C 238.467 239.186,238.580 238.450,238.494 238.364 C 238.409 238.278,238.154 238.874,237.930 239.688 M236.307 244.392 C 236.091 244.960,235.804 245.603,235.670 245.820 C 235.536 246.037,235.612 246.100,235.839 245.960 C 236.269 245.694,237.207 243.359,236.884 243.359 C 236.783 243.359,236.523 243.824,236.307 244.392 M182.762 248.153 C 182.928 248.319,186.567 248.406,190.848 248.348 L 198.633 248.241 190.546 248.046 C 186.098 247.939,182.595 247.987,182.762 248.153 M123.759 248.340 C 130.488 248.400,141.386 248.400,147.977 248.340 C 154.568 248.280,149.063 248.231,135.742 248.231 C 122.422 248.231,117.029 248.280,123.759 248.340 M227.139 257.910 L 224.023 261.133 227.246 258.017 C 230.239 255.123,230.647 254.688,230.362 254.688 C 230.303 254.688,228.853 256.138,227.139 257.910 M216.406 265.625 C 215.654 266.037,215.180 266.381,215.351 266.390 C 215.765 266.412,217.969 265.266,217.969 265.029 C 217.969 264.773,217.946 264.782,216.406 265.625 M107.715 270.204 C 108.413 270.291,109.556 270.291,110.254 270.204 C 110.952 270.118,110.381 270.047,108.984 270.047 C 107.588 270.047,107.017 270.118,107.715 270.204 M199.902 270.204 C 200.601 270.291,201.743 270.291,202.441 270.204 C 203.140 270.118,202.568 270.047,201.172 270.047 C 199.775 270.047,199.204 270.118,199.902 270.204 M159.641 270.582 C 159.895 270.763,160.177 271.699,160.269 272.663 L 160.436 274.414 160.394 272.491 C 160.364 271.139,160.178 270.522,159.766 270.411 C 159.361 270.302,159.322 270.355,159.641 270.582 M186.426 270.597 C 187.231 270.681,188.550 270.681,189.355 270.597 C 190.161 270.513,189.502 270.444,187.891 270.444 C 186.279 270.444,185.620 270.513,186.426 270.597 M307.122 271.484 C 307.122 272.236,307.202 272.544,307.301 272.168 C 307.399 271.792,307.399 271.177,307.301 270.801 C 307.202 270.425,307.122 270.732,307.122 271.484 M183.250 274.609 C 183.244 274.932,183.480 275.723,183.775 276.367 C 184.466 277.876,184.476 277.174,183.789 275.391 C 183.499 274.639,183.257 274.287,183.250 274.609 M184.961 278.906 C 185.294 279.551,185.655 280.078,185.762 280.078 C 185.870 280.078,185.685 279.551,185.352 278.906 C 185.018 278.262,184.658 277.734,184.550 277.734 C 184.443 277.734,184.628 278.262,184.961 278.906 M161.395 279.297 C 161.414 280.312,162.029 281.979,162.043 281.055 C 162.049 280.625,161.903 279.922,161.719 279.492 C 161.513 279.014,161.387 278.938,161.395 279.297 M327.958 280.692 C 327.814 281.264,327.772 281.808,327.864 281.900 C 327.956 281.992,328.149 281.599,328.292 281.027 C 328.436 280.454,328.478 279.911,328.386 279.819 C 328.294 279.726,328.101 280.119,327.958 280.692 M302.145 282.324 C 301.094 283.560,300.641 284.219,301.137 283.789 C 302.079 282.973,304.476 280.078,304.209 280.078 C 304.124 280.078,303.196 281.089,302.145 282.324 M163.309 285.459 C 163.551 286.153,163.909 286.819,164.104 286.940 C 164.299 287.060,164.249 286.665,163.991 286.060 C 163.301 284.439,162.799 283.996,163.309 285.459 M298.455 285.400 C 296.617 286.705,296.456 286.932,297.880 286.208 C 298.540 285.873,299.309 285.323,299.588 284.987 C 300.254 284.185,300.075 284.250,298.455 285.400 M324.115 289.944 L 323.426 291.211 324.213 290.289 C 324.883 289.504,325.241 288.666,324.902 288.674 C 324.849 288.676,324.495 289.247,324.115 289.944 M223.340 289.355 C 235.210 289.413,254.634 289.413,266.504 289.355 C 278.374 289.298,268.662 289.251,244.922 289.251 C 221.182 289.251,211.470 289.298,223.340 289.355 M319.922 296.094 C 319.463 296.738,319.175 297.266,319.283 297.266 C 319.390 297.266,319.854 296.738,320.313 296.094 C 320.771 295.449,321.059 294.922,320.952 294.922 C 320.844 294.922,320.381 295.449,319.922 296.094 M169.531 295.825 C 169.531 295.893,170.103 296.464,170.801 297.095 L 172.070 298.242 170.923 296.973 C 169.854 295.789,169.531 295.524,169.531 295.825 M317.166 299.121 L 315.820 300.586 317.285 299.240 C 318.649 297.987,318.930 297.656,318.631 297.656 C 318.566 297.656,317.907 298.315,317.166 299.121 M173.828 300.122 C 173.828 300.189,174.399 300.761,175.098 301.392 L 176.367 302.539 175.220 301.270 C 174.150 300.086,173.828 299.820,173.828 300.122 M308.008 305.886 C 307.363 306.299,307.036 306.637,307.281 306.639 C 307.526 306.640,308.141 306.295,308.648 305.872 C 309.809 304.905,309.530 304.911,308.008 305.886 M299.805 309.375 C 299.312 309.587,299.240 309.711,299.609 309.711 C 299.932 309.711,300.547 309.560,300.977 309.375 C 301.469 309.163,301.541 309.039,301.172 309.039 C 300.850 309.039,300.234 309.190,299.805 309.375 M295.313 310.547 C 293.961 310.831,293.959 310.835,295.117 310.880 C 295.762 310.905,296.553 310.755,296.875 310.547 C 297.525 310.127,297.309 310.127,295.313 310.547 M223.175 311.621 C 235.384 311.678,255.247 311.678,267.315 311.621 C 279.384 311.564,269.395 311.517,245.117 311.517 C 220.840 311.517,210.966 311.564,223.175 311.621 " stroke="none" fill="#a37d92" fill-rule="evenodd"></path><path id="path3" d="M284.675 106.623 C 281.181 106.819,280.786 106.923,279.792 107.918 L 278.711 109.001 278.579 117.001 L 278.446 125.000 270.541 125.000 C 262.848 125.000,262.614 125.024,261.813 125.879 C 259.520 128.326,259.553 136.293,261.866 138.606 L 262.908 139.648 270.028 139.749 C 273.944 139.805,277.438 139.849,277.792 139.847 C 278.364 139.844,278.451 140.728,278.573 147.820 L 278.711 155.796 279.863 156.786 C 281.794 158.445,289.333 158.749,291.607 157.259 C 293.171 156.234,293.359 155.160,293.359 147.240 L 293.359 139.844 299.902 139.772 C 309.085 139.670,309.054 139.675,310.508 138.128 C 311.539 137.030,312.090 130.237,311.333 127.945 C 310.463 125.309,310.153 125.217,301.425 125.000 L 293.555 124.805 293.357 116.992 C 293.086 106.285,292.980 106.158,284.675 106.623 " stroke="none" fill="#ffab00" fill-rule="evenodd"></path><path id="path4" d="M285.059 88.948 C 285.542 89.041,286.333 89.041,286.816 88.948 C 287.300 88.854,286.904 88.778,285.938 88.778 C 284.971 88.778,284.575 88.854,285.059 88.948 M271.484 91.244 C 270.205 91.768,270.192 91.789,271.289 91.577 C 271.934 91.453,272.628 91.188,272.832 90.988 C 273.300 90.530,273.165 90.556,271.484 91.244 M257.202 99.707 L 256.055 100.977 257.324 99.829 C 258.022 99.198,258.594 98.627,258.594 98.560 C 258.594 98.258,258.271 98.524,257.202 99.707 M316.797 101.758 C 317.526 102.510,318.210 103.125,318.317 103.125 C 318.425 103.125,317.916 102.510,317.188 101.758 C 316.459 101.006,315.774 100.391,315.667 100.391 C 315.560 100.391,316.068 101.006,316.797 101.758 M283.897 106.537 C 284.816 106.619,286.222 106.618,287.022 106.534 C 287.822 106.450,287.070 106.382,285.352 106.384 C 283.633 106.385,282.978 106.454,283.897 106.537 M326.786 117.578 C 326.930 118.115,327.211 118.818,327.410 119.141 C 327.661 119.548,327.692 119.429,327.510 118.750 C 327.367 118.213,327.086 117.510,326.887 117.188 C 326.636 116.780,326.605 116.899,326.786 117.578 M244.575 118.403 C 244.334 119.093,244.205 119.726,244.289 119.810 C 244.373 119.893,244.638 119.397,244.878 118.707 C 245.119 118.016,245.248 117.383,245.164 117.300 C 245.081 117.216,244.815 117.712,244.575 118.403 M267.305 124.901 C 269.411 124.971,272.751 124.971,274.727 124.900 C 276.703 124.829,274.980 124.772,270.898 124.772 C 266.816 124.773,265.200 124.830,267.305 124.901 M297.384 124.901 C 299.489 124.971,302.829 124.971,304.805 124.900 C 306.782 124.829,305.059 124.772,300.977 124.772 C 296.895 124.773,295.278 124.830,297.384 124.901 M244.354 145.801 C 244.500 146.284,244.780 146.851,244.976 147.061 C 245.173 147.271,245.136 146.876,244.894 146.182 C 244.400 144.763,243.943 144.441,244.354 145.801 M326.997 146.528 C 326.756 147.218,326.627 147.851,326.711 147.935 C 326.794 148.018,327.060 147.522,327.300 146.832 C 327.541 146.141,327.670 145.508,327.586 145.425 C 327.502 145.341,327.237 145.837,326.997 146.528 M133.496 156.152 C 145.366 156.210,164.790 156.210,176.660 156.152 C 188.530 156.095,178.818 156.048,155.078 156.048 C 131.338 156.048,121.626 156.095,133.496 156.152 M108.306 156.530 C 108.900 156.620,109.779 156.618,110.259 156.525 C 110.740 156.432,110.254 156.359,109.180 156.362 C 108.105 156.365,107.712 156.441,108.306 156.530 M200.103 156.530 C 200.697 156.620,201.576 156.618,202.056 156.525 C 202.537 156.432,202.051 156.359,200.977 156.362 C 199.902 156.365,199.509 156.441,200.103 156.530 M253.125 161.133 C 253.854 161.885,254.538 162.500,254.645 162.500 C 254.753 162.500,254.244 161.885,253.516 161.133 C 252.787 160.381,252.103 159.766,251.995 159.766 C 251.888 159.766,252.396 160.381,253.125 161.133 M257.031 165.039 C 257.760 165.791,258.444 166.406,258.552 166.406 C 258.659 166.406,258.151 165.791,257.422 165.039 C 256.693 164.287,256.009 163.672,255.901 163.672 C 255.794 163.672,256.302 164.287,257.031 165.039 M313.843 165.723 L 312.695 166.992 313.965 165.845 C 314.663 165.214,315.234 164.643,315.234 164.575 C 315.234 164.274,314.912 164.539,313.843 165.723 M84.161 167.285 L 82.617 168.945 84.277 167.401 C 85.821 165.965,86.117 165.625,85.821 165.625 C 85.758 165.625,85.011 166.372,84.161 167.285 M227.148 168.750 C 228.424 170.039,229.556 171.094,229.663 171.094 C 229.770 171.094,228.815 170.039,227.539 168.750 C 226.263 167.461,225.132 166.406,225.024 166.406 C 224.917 166.406,225.873 167.461,227.148 168.750 M280.181 175.671 C 280.775 175.761,281.654 175.758,282.134 175.666 C 282.615 175.573,282.129 175.499,281.055 175.502 C 279.980 175.505,279.587 175.581,280.181 175.671 M290.137 175.666 C 290.620 175.759,291.411 175.759,291.895 175.666 C 292.378 175.573,291.982 175.497,291.016 175.497 C 290.049 175.497,289.653 175.573,290.137 175.666 M284.668 176.064 C 285.366 176.150,286.509 176.150,287.207 176.064 C 287.905 175.977,287.334 175.906,285.938 175.906 C 284.541 175.906,283.970 175.977,284.668 176.064 M208.594 181.372 C 208.594 181.469,209.239 182.040,210.028 182.642 C 210.817 183.243,211.339 183.536,211.188 183.292 C 210.879 182.792,208.594 181.101,208.594 181.372 M70.802 193.164 C 70.806 194.023,70.886 194.329,70.979 193.843 C 71.073 193.357,71.069 192.654,70.972 192.281 C 70.874 191.907,70.797 192.305,70.802 193.164 M217.278 194.922 C 217.278 195.674,217.359 195.981,217.457 195.605 C 217.555 195.229,217.555 194.614,217.457 194.238 C 217.359 193.862,217.278 194.170,217.278 194.922 M92.367 212.891 C 92.367 222.451,92.418 226.362,92.480 221.582 C 92.542 216.802,92.542 208.979,92.480 204.199 C 92.418 199.419,92.367 203.330,92.367 212.891 M198.735 197.542 C 199.221 197.635,199.924 197.632,200.298 197.534 C 200.671 197.436,200.273 197.360,199.414 197.364 C 198.555 197.368,198.249 197.448,198.735 197.542 M289.941 197.535 C 290.317 197.633,290.933 197.633,291.309 197.535 C 291.685 197.437,291.377 197.356,290.625 197.356 C 289.873 197.356,289.565 197.437,289.941 197.535 M306.250 201.738 C 306.250 201.845,306.777 202.206,307.422 202.539 C 308.066 202.872,308.594 203.057,308.594 202.950 C 308.594 202.842,308.066 202.482,307.422 202.148 C 306.777 201.815,306.250 201.630,306.250 201.738 M176.725 206.083 L 175.195 207.478 176.855 206.213 C 178.372 205.057,178.743 204.688,178.385 204.688 C 178.314 204.688,177.567 205.315,176.725 206.083 M313.706 206.738 C 313.797 206.792,314.485 207.363,315.236 208.008 L 316.602 209.180 315.454 207.910 C 314.823 207.212,314.135 206.641,313.924 206.641 C 313.714 206.641,313.616 206.685,313.706 206.738 M172.446 209.863 L 170.508 211.914 172.559 209.976 C 173.687 208.909,174.609 207.987,174.609 207.925 C 174.609 207.633,174.247 207.958,172.446 209.863 M318.775 211.553 C 319.513 212.429,320.196 213.083,320.293 213.005 C 320.390 212.928,319.785 212.211,318.950 211.413 L 317.432 209.961 318.775 211.553 M217.669 220.313 C 217.669 221.064,217.749 221.372,217.847 220.996 C 217.946 220.620,217.946 220.005,217.847 219.629 C 217.749 219.253,217.669 219.561,217.669 220.313 M164.517 220.915 C 163.862 222.352,163.987 222.658,164.695 221.352 C 165.025 220.742,165.222 220.170,165.133 220.081 C 165.044 219.992,164.766 220.367,164.517 220.915 M239.599 224.414 C 239.600 226.777,239.664 227.694,239.742 226.451 C 239.820 225.207,239.819 223.274,239.741 222.154 C 239.662 221.034,239.598 222.051,239.599 224.414 M188.856 224.444 L 186.914 226.232 188.965 224.578 C 190.805 223.095,191.248 222.656,190.907 222.656 C 190.848 222.656,189.925 223.461,188.856 224.444 M301.563 225.195 C 302.291 225.947,302.976 226.563,303.083 226.563 C 303.190 226.563,302.682 225.947,301.953 225.195 C 301.224 224.443,300.540 223.828,300.433 223.828 C 300.325 223.828,300.834 224.443,301.563 225.195 M70.794 233.203 C 70.794 233.955,70.874 234.263,70.972 233.887 C 71.071 233.511,71.071 232.896,70.972 232.520 C 70.874 232.144,70.794 232.451,70.794 233.203 M328.997 233.594 C 328.997 234.346,329.077 234.653,329.176 234.277 C 329.274 233.901,329.274 233.286,329.176 232.910 C 329.077 232.534,328.997 232.842,328.997 233.594 M182.576 234.928 C 182.459 235.232,182.427 235.979,182.504 236.588 C 182.619 237.492,182.680 237.390,182.837 236.035 C 183.034 234.327,182.947 233.959,182.576 234.928 M307.601 254.297 C 307.601 263.857,307.652 267.769,307.714 262.988 C 307.777 258.208,307.777 250.386,307.714 245.605 C 307.652 240.825,307.601 244.736,307.601 254.297 M182.102 242.848 C 182.063 245.682,182.163 248.083,182.324 248.183 C 182.485 248.283,182.570 246.756,182.513 244.788 C 182.325 238.327,182.173 237.611,182.102 242.848 M72.321 240.234 C 72.321 240.557,72.472 241.172,72.656 241.602 C 72.868 242.094,72.992 242.166,72.992 241.797 C 72.992 241.475,72.841 240.859,72.656 240.430 C 72.445 239.937,72.321 239.865,72.321 240.234 M224.780 259.863 L 223.633 261.133 224.902 259.986 C 225.601 259.354,226.172 258.783,226.172 258.716 C 226.172 258.414,225.850 258.680,224.780 259.863 M119.922 270.206 C 142.680 270.477,160.456 270.481,160.291 270.215 C 160.192 270.054,149.090 269.962,135.621 270.012 C 122.153 270.061,115.088 270.149,119.922 270.206 M182.677 270.215 C 182.577 270.376,184.983 270.462,188.025 270.407 C 198.091 270.223,199.128 270.078,190.941 269.999 C 186.496 269.957,182.777 270.054,182.677 270.215 M182.513 272.266 C 182.513 273.018,182.593 273.325,182.691 272.949 C 182.789 272.573,182.789 271.958,182.691 271.582 C 182.593 271.206,182.513 271.514,182.513 272.266 M328.997 275.000 C 328.997 275.752,329.077 276.060,329.176 275.684 C 329.274 275.308,329.274 274.692,329.176 274.316 C 329.077 273.940,328.997 274.248,328.997 275.000 M161.004 276.758 C 160.998 277.188,161.143 277.891,161.328 278.320 C 161.756 279.316,161.756 278.289,161.328 276.953 C 161.077 276.168,161.013 276.130,161.004 276.758 M327.031 282.695 C 326.787 283.490,326.653 284.205,326.732 284.284 C 326.811 284.363,327.086 283.789,327.344 283.008 C 327.601 282.227,327.736 281.512,327.643 281.419 C 327.551 281.327,327.275 281.901,327.031 282.695 M296.387 286.942 C 294.926 287.734,295.015 288.064,296.484 287.305 C 297.129 286.971,297.656 286.615,297.656 286.513 C 297.656 286.262,297.614 286.276,296.387 286.942 M318.530 297.363 L 317.383 298.633 318.652 297.486 C 319.351 296.854,319.922 296.283,319.922 296.216 C 319.922 295.914,319.600 296.180,318.530 297.363 M315.604 300.293 L 314.258 301.758 315.723 300.412 C 317.086 299.159,317.367 298.828,317.069 298.828 C 317.004 298.828,316.344 299.487,315.604 300.293 M174.219 300.122 C 174.219 300.189,174.790 300.761,175.488 301.392 L 176.758 302.539 175.611 301.270 C 174.541 300.086,174.219 299.820,174.219 300.122 M312.305 302.964 L 311.133 303.971 312.402 303.131 C 313.101 302.669,313.672 302.215,313.672 302.122 C 313.672 301.829,313.506 301.931,312.305 302.964 M177.312 302.876 C 177.832 303.517,179.297 304.485,179.297 304.189 C 179.297 304.114,178.726 303.635,178.027 303.124 C 177.242 302.549,176.969 302.454,177.312 302.876 M302.148 308.412 C 301.172 308.883,301.139 308.937,301.953 308.738 C 303.060 308.467,304.304 307.833,303.711 307.842 C 303.496 307.845,302.793 308.102,302.148 308.412 M192.578 310.156 C 193.115 310.328,193.906 310.469,194.336 310.469 C 194.955 310.469,194.914 310.404,194.141 310.156 C 193.604 309.984,192.813 309.844,192.383 309.844 C 191.764 309.844,191.805 309.909,192.578 310.156 M199.512 311.213 C 199.995 311.306,200.786 311.306,201.270 311.213 C 201.753 311.120,201.357 311.044,200.391 311.044 C 199.424 311.044,199.028 311.120,199.512 311.213 M288.775 311.218 C 289.369 311.308,290.248 311.305,290.728 311.212 C 291.208 311.120,290.723 311.046,289.648 311.049 C 288.574 311.052,288.181 311.128,288.775 311.218 " stroke="none" fill="#d5bfd4" fill-rule="evenodd"></path></g></svg>